<mxfile host="app.diagrams.net" modified="2023-08-09T10:39:51.128Z" agent="Mozilla/5.0 (Macintosh; Intel Mac OS X 10_15_7) AppleWebKit/537.36 (KHTML, like Gecko) Chrome/115.0.0.0 Safari/537.36" etag="Bd9EaV8JetTRYbCRBzS6" version="21.6.6" type="github">
  <diagram name="第 1 页" id="0ZMwYMWmGL18XHd-UnVb">
    <mxGraphModel dx="1193" dy="633" grid="1" gridSize="10" guides="1" tooltips="1" connect="1" arrows="1" fold="1" page="1" pageScale="1" pageWidth="827" pageHeight="1169" math="0" shadow="0">
      <root>
        <mxCell id="0" />
        <mxCell id="1" parent="0" />
        <mxCell id="w_BWbANkLUFJC1OPh6Pt-1" style="edgeStyle=orthogonalEdgeStyle;rounded=0;orthogonalLoop=1;jettySize=auto;html=1;entryX=0.5;entryY=0;entryDx=0;entryDy=0;" edge="1" parent="1" source="w_BWbANkLUFJC1OPh6Pt-2" target="w_BWbANkLUFJC1OPh6Pt-4">
          <mxGeometry relative="1" as="geometry" />
        </mxCell>
        <mxCell id="w_BWbANkLUFJC1OPh6Pt-2" value="&lt;font style=&quot;font-size: 16px;&quot;&gt;开始&lt;/font&gt;" style="rounded=1;whiteSpace=wrap;html=1;" vertex="1" parent="1">
          <mxGeometry x="370" y="60" width="120" height="60" as="geometry" />
        </mxCell>
        <mxCell id="w_BWbANkLUFJC1OPh6Pt-3" style="edgeStyle=orthogonalEdgeStyle;rounded=0;orthogonalLoop=1;jettySize=auto;html=1;entryX=0.5;entryY=0;entryDx=0;entryDy=0;" edge="1" parent="1" source="w_BWbANkLUFJC1OPh6Pt-4" target="w_BWbANkLUFJC1OPh6Pt-6">
          <mxGeometry relative="1" as="geometry" />
        </mxCell>
        <mxCell id="w_BWbANkLUFJC1OPh6Pt-4" value="&lt;span style=&quot;font-size: 16px;&quot;&gt;生成key&lt;/span&gt;" style="rounded=0;whiteSpace=wrap;html=1;" vertex="1" parent="1">
          <mxGeometry x="370" y="160" width="120" height="60" as="geometry" />
        </mxCell>
        <mxCell id="w_BWbANkLUFJC1OPh6Pt-5" style="edgeStyle=orthogonalEdgeStyle;rounded=0;orthogonalLoop=1;jettySize=auto;html=1;entryX=0.5;entryY=0;entryDx=0;entryDy=0;" edge="1" parent="1" source="w_BWbANkLUFJC1OPh6Pt-6">
          <mxGeometry relative="1" as="geometry">
            <mxPoint x="430" y="360" as="targetPoint" />
          </mxGeometry>
        </mxCell>
        <mxCell id="w_BWbANkLUFJC1OPh6Pt-6" value="&lt;span style=&quot;font-size: 16px;&quot;&gt;获取活动倍数&lt;/span&gt;" style="rounded=0;whiteSpace=wrap;html=1;" vertex="1" parent="1">
          <mxGeometry x="370" y="260" width="120" height="60" as="geometry" />
        </mxCell>
        <mxCell id="w_BWbANkLUFJC1OPh6Pt-12" style="edgeStyle=orthogonalEdgeStyle;rounded=0;orthogonalLoop=1;jettySize=auto;html=1;entryX=0.5;entryY=0;entryDx=0;entryDy=0;" edge="1" parent="1" source="w_BWbANkLUFJC1OPh6Pt-14" target="w_BWbANkLUFJC1OPh6Pt-16">
          <mxGeometry relative="1" as="geometry" />
        </mxCell>
        <mxCell id="w_BWbANkLUFJC1OPh6Pt-24" style="edgeStyle=orthogonalEdgeStyle;rounded=0;orthogonalLoop=1;jettySize=auto;html=1;entryX=1;entryY=0.5;entryDx=0;entryDy=0;exitX=1;exitY=0.5;exitDx=0;exitDy=0;" edge="1" parent="1" source="w_BWbANkLUFJC1OPh6Pt-14" target="w_BWbANkLUFJC1OPh6Pt-17">
          <mxGeometry relative="1" as="geometry">
            <Array as="points">
              <mxPoint x="560" y="600" />
              <mxPoint x="560" y="800" />
            </Array>
          </mxGeometry>
        </mxCell>
        <mxCell id="w_BWbANkLUFJC1OPh6Pt-14" value="&lt;font style=&quot;&quot;&gt;&lt;font style=&quot;font-size: 13px;&quot;&gt;判断返回值是&lt;br&gt;否与被加数相等&lt;/font&gt;&lt;br&gt;&lt;/font&gt;" style="rhombus;whiteSpace=wrap;html=1;" vertex="1" parent="1">
          <mxGeometry x="360" y="560" width="140" height="80" as="geometry" />
        </mxCell>
        <mxCell id="w_BWbANkLUFJC1OPh6Pt-15" style="edgeStyle=orthogonalEdgeStyle;rounded=0;orthogonalLoop=1;jettySize=auto;html=1;" edge="1" parent="1" source="w_BWbANkLUFJC1OPh6Pt-16" target="w_BWbANkLUFJC1OPh6Pt-17">
          <mxGeometry relative="1" as="geometry" />
        </mxCell>
        <mxCell id="w_BWbANkLUFJC1OPh6Pt-16" value="&lt;span style=&quot;font-size: 16px;&quot;&gt;设置过期时间&lt;/span&gt;" style="rounded=0;whiteSpace=wrap;html=1;" vertex="1" parent="1">
          <mxGeometry x="370" y="670" width="120" height="60" as="geometry" />
        </mxCell>
        <mxCell id="w_BWbANkLUFJC1OPh6Pt-30" style="edgeStyle=orthogonalEdgeStyle;rounded=0;orthogonalLoop=1;jettySize=auto;html=1;entryX=0.5;entryY=0;entryDx=0;entryDy=0;" edge="1" parent="1" source="w_BWbANkLUFJC1OPh6Pt-17" target="w_BWbANkLUFJC1OPh6Pt-29">
          <mxGeometry relative="1" as="geometry" />
        </mxCell>
        <mxCell id="w_BWbANkLUFJC1OPh6Pt-17" value="&lt;font style=&quot;font-size: 16px;&quot;&gt;检查是否超过上限&lt;/font&gt;" style="rounded=0;whiteSpace=wrap;html=1;" vertex="1" parent="1">
          <mxGeometry x="370" y="770" width="120" height="60" as="geometry" />
        </mxCell>
        <mxCell id="w_BWbANkLUFJC1OPh6Pt-18" value="是" style="text;html=1;align=center;verticalAlign=middle;resizable=0;points=[];autosize=1;strokeColor=none;fillColor=none;" vertex="1" parent="1">
          <mxGeometry x="430" y="638" width="40" height="30" as="geometry" />
        </mxCell>
        <mxCell id="w_BWbANkLUFJC1OPh6Pt-25" style="edgeStyle=orthogonalEdgeStyle;rounded=0;orthogonalLoop=1;jettySize=auto;html=1;entryX=0.5;entryY=0;entryDx=0;entryDy=0;" edge="1" parent="1" source="w_BWbANkLUFJC1OPh6Pt-22" target="w_BWbANkLUFJC1OPh6Pt-23">
          <mxGeometry relative="1" as="geometry" />
        </mxCell>
        <mxCell id="w_BWbANkLUFJC1OPh6Pt-22" value="&lt;font style=&quot;font-size: 16px;&quot;&gt;计算积分上限&lt;/font&gt;" style="rounded=0;whiteSpace=wrap;html=1;" vertex="1" parent="1">
          <mxGeometry x="370" y="360" width="120" height="60" as="geometry" />
        </mxCell>
        <mxCell id="w_BWbANkLUFJC1OPh6Pt-27" style="edgeStyle=orthogonalEdgeStyle;rounded=0;orthogonalLoop=1;jettySize=auto;html=1;entryX=0.5;entryY=0;entryDx=0;entryDy=0;" edge="1" parent="1" source="w_BWbANkLUFJC1OPh6Pt-23" target="w_BWbANkLUFJC1OPh6Pt-14">
          <mxGeometry relative="1" as="geometry" />
        </mxCell>
        <mxCell id="w_BWbANkLUFJC1OPh6Pt-23" value="&lt;font style=&quot;font-size: 16px;&quot;&gt;redis Incrby&lt;/font&gt;" style="rounded=0;whiteSpace=wrap;html=1;" vertex="1" parent="1">
          <mxGeometry x="370" y="460" width="120" height="60" as="geometry" />
        </mxCell>
        <mxCell id="w_BWbANkLUFJC1OPh6Pt-28" value="否" style="text;html=1;align=center;verticalAlign=middle;resizable=0;points=[];autosize=1;strokeColor=none;fillColor=none;" vertex="1" parent="1">
          <mxGeometry x="500" y="568" width="40" height="30" as="geometry" />
        </mxCell>
        <mxCell id="w_BWbANkLUFJC1OPh6Pt-29" value="&lt;font style=&quot;font-size: 16px;&quot;&gt;结束&lt;/font&gt;" style="rounded=1;whiteSpace=wrap;html=1;" vertex="1" parent="1">
          <mxGeometry x="370" y="870" width="120" height="60" as="geometry" />
        </mxCell>
      </root>
    </mxGraphModel>
  </diagram>
</mxfile>
